HIERARCHY
ROOT root
{
	OFFSET 0.000000 0.000000 0.000000
	CHANNELS 6 Xposition Yposition Zposition Zrotation Yrotation Xrotation
	JOINT lhip
	{
		OFFSET 0.058581 -0.082280 -0.017664
		CHANNELS 3 Zrotation Yrotation Xrotation
		JOINT lknee
		{
			OFFSET 0.043451 -0.386469 0.008037
			CHANNELS 3 Zrotation Yrotation Xrotation
			JOINT lankle
			{
				OFFSET -0.014790 -0.426874 -0.037428
				CHANNELS 3 Zrotation Yrotation Xrotation
				JOINT ltoe
				{
					OFFSET 0.041054 -0.060286 0.122042
					CHANNELS 3 Zrotation Yrotation Xrotation
					End Site
					{
						OFFSET 0.000000 0.000000 0.000000
					}
				}
			}
		}
	}
	JOINT rhip
	{
		OFFSET -0.060310 -0.090513 -0.013543
		CHANNELS 3 Zrotation Yrotation Xrotation
		JOINT rknee
		{
			OFFSET -0.043257 -0.383688 -0.004843
			CHANNELS 3 Zrotation Yrotation Xrotation
			JOINT rankle
			{
				OFFSET 0.019056 -0.420046 -0.034562
				CHANNELS 3 Zrotation Yrotation Xrotation
				JOINT rtoe
				{
					OFFSET -0.034840 -0.062106 0.130323
					CHANNELS 3 Zrotation Yrotation Xrotation
					End Site
					{
						OFFSET 0.000000 0.000000 0.000000
					}
				}
			}
		}
	}
	JOINT lowerback
	{
		OFFSET 0.004439 0.124404 -0.038385
		CHANNELS 3 Zrotation Yrotation Xrotation
		JOINT upperback
		{
			OFFSET 0.004488 0.137956 0.026820
			CHANNELS 3 Zrotation Yrotation Xrotation
			JOINT chest
			{
				OFFSET -0.002265 0.056032 0.002855
				CHANNELS 3 Zrotation Yrotation Xrotation
				JOINT lowerneck
				{
					OFFSET -0.013390 0.211636 -0.033468
					CHANNELS 3 Zrotation Yrotation Xrotation
					JOINT upperneck
					{
						OFFSET 0.010113 0.088937 0.050410
						CHANNELS 3 Zrotation Yrotation Xrotation
						End Site
						{
							OFFSET 0.000000 0.000000 0.000000
						}
					}
				}
				JOINT lclavicle
				{
					OFFSET 0.071702 0.114000 -0.018898
					CHANNELS 3 Zrotation Yrotation Xrotation
					JOINT lshoulder
					{
						OFFSET 0.122921 0.045205 -0.019046
						CHANNELS 3 Zrotation Yrotation Xrotation
						JOINT lelbow
						{
							OFFSET 0.255332 -0.015649 -0.022946
							CHANNELS 3 Zrotation Yrotation Xrotation
							JOINT lwrist
							{
								OFFSET 0.265709 0.012698 -0.007375
								CHANNELS 3 Zrotation Yrotation Xrotation
								End Site
								{
									OFFSET 0.000000 0.000000 0.000000
								}
							}
						}
					}
				}
				JOINT rclavicle
				{
					OFFSET -0.082954 0.112472 -0.023707
					CHANNELS 3 Zrotation Yrotation Xrotation
					JOINT rshoulder
					{
						OFFSET -0.113228 0.046853 -0.008472
						CHANNELS 3 Zrotation Yrotation Xrotation
						JOINT relbow
						{
							OFFSET -0.260127 -0.014369 -0.031269
							CHANNELS 3 Zrotation Yrotation Xrotation
							JOINT rwrist
							{
								OFFSET -0.269108 0.006794 -0.006027
								CHANNELS 3 Zrotation Yrotation Xrotation
								End Site
								{
									OFFSET 0.000000 0.000000 0.000000
								}
							}
						}
					}
				}
			}
		}
	}
}
MOTION
Frames: 8
Frame Time: 0.033333
0.360172 -0.396565 0.953814 -175.958944 0.497507 92.628444 9.277057 -0.553018 -20.903524 -6.925996 -5.146770 24.383700 2.698256 3.119644 -11.776631 0.000000 -0.000000 0.000000 -8.308264 -6.168563 -20.074757 0.833925 -4.368519 23.920289 2.103146 -3.293494 -11.084791 0.000000 -0.000000 0.000000 2.451399 4.263570 19.203806 3.201860 -3.521791 5.323969 1.068566 0.157820 -2.072166 3.918534 7.494080 20.566801 5.002778 -0.349148 17.663093 -15.497364 -23.529202 4.106610 -76.766311 -28.432727 29.319959 -2.901527 -24.555750 18.092158 -6.625104 7.063816 -37.955751 15.634657 22.655590 6.146710 77.042645 28.930493 22.576529 -13.294165 15.260852 -17.663021 7.860036 -0.997915 -56.591808 
0.360250 -0.396714 0.953795 -176.275899 0.504658 92.738529 9.278656 -0.488877 -21.006363 -6.820219 -4.906637 24.463492 2.720743 3.249393 -11.800068 0.000000 -0.000000 0.000000 -8.252555 -5.966285 -20.261154 0.831647 -4.307208 23.856854 2.071008 -3.231935 -11.015761 0.000000 -0.000000 0.000000 2.246780 4.229537 19.127050 3.188254 -3.507848 5.268135 1.027028 0.076329 -2.036435 4.061713 7.775849 20.535504 4.922421 -0.358495 17.800609 -15.502637 -23.529234 4.257368 -76.768253 -28.537827 29.392332 -2.702416 -24.478429 18.444299 -7.114787 6.516834 -38.393289 15.703508 22.450513 6.213346 77.261747 29.126399 22.753558 -13.452770 15.061100 -17.393700 7.516278 -0.917119 -57.049316 
0.360688 -0.396347 0.953746 -176.681042 0.571067 92.728808 9.375432 -0.358284 -20.884647 -6.752411 -4.918641 24.478310 2.694584 3.304907 -11.906759 0.000000 -0.000000 0.000000 -8.106554 -5.815244 -20.296686 0.825015 -4.076848 23.779382 2.122252 -3.157329 -10.967103 0.000000 -0.000000 0.000000 1.980694 4.099399 19.178021 3.083130 -3.555597 5.276629 1.078606 0.124131 -2.009813 3.942222 7.892126 20.584595 4.970245 0.087924 17.690191 -15.440017 -23.413457 4.038550 -76.930067 -28.450903 29.269131 -2.832113 -24.366626 18.356600 -6.825542 7.061067 -37.994521 15.463697 22.405059 6.096891 77.388756 28.940947 22.730835 -13.317592 15.457101 -17.421757 7.761322 -1.220571 -56.738723 
0.360763 -0.396247 0.953959 -177.086148 0.727002 92.735717 9.574666 -0.286519 -20.750438 -6.704954 -4.848476 24.414361 2.636541 3.363377 -11.952356 0.000000 -0.000000 0.000000 -7.895976 -5.717354 -20.292527 0.819947 -3.984716 23.576631 2.068811 -2.999274 -10.865423 0.000000 -0.000000 0.000000 1.918110 4.050508 19.214970 3.060590 -3.566704 5.246431 1.061049 0.068840 -2.002941 3.886579 8.133288 20.661705 4.959537 0.190375 17.795777 -15.512618 -23.472952 4.160196 -76.824981 -28.498976 29.184385 -2.805578 -24.446015 18.292113 -6.993382 6.818724 -38.063944 15.351658 22.390398 6.110993 77.555738 28.982224 22.786708 -13.539252 15.303122 -17.391693 7.699739 -1.183306 -56.730598 
0.360687 -0.396044 0.954018 -177.388526 0.859467 92.812791 9.725571 -0.235034 -20.810584 -6.635062 -4.658880 24.527579 2.716955 3.444406 -12.027941 0.000000 -0.000000 0.000000 -7.753063 -5.681228 -20.352092 0.925222 -3.866990 23.398396 2.183446 -2.890766 -10.758421 0.000000 -0.000000 0.000000 1.922144 3.997164 19.099184 2.991830 -3.670070 5.357140 0.944515 0.026644 -2.044545 3.860409 8.422816 20.891771 5.106682 0.529113 17.500050 -15.549538 -23.670241 4.216249 -76.779286 -28.557679 29.206478 -2.857164 -24.328233 18.198087 -7.029336 7.123051 -38.083825 15.337804 22.336619 6.181731 77.628463 29.022961 22.780339 -13.681922 15.306370 -17.512990 7.572236 -1.295679 -56.704124 
0.360660 -0.395527 0.954060 -177.641815 0.942734 92.797719 9.811969 -0.186775 -20.730094 -6.552560 -4.535298 24.593370 2.654964 3.489591 -12.084669 0.000000 -0.000000 0.000000 -7.725973 -5.568646 -20.238578 1.010629 -3.882276 23.206966 2.148540 -2.697048 -10.670134 0.000000 -0.000000 0.000000 1.790891 3.870489 19.107575 2.931280 -3.787419 5.394173 0.895947 -0.058618 -2.064263 3.992636 8.754563 20.982894 5.051225 0.666790 17.557222 -15.507964 -23.633216 4.311110 -76.746211 -28.551540 29.205708 -2.611927 -24.439100 18.534913 -7.731920 6.133465 -38.507168 15.277350 22.308045 6.124964 77.811894 28.966253 22.984551 -13.697654 15.254061 -17.209478 7.147251 -1.302689 -57.281850 
0.361174 -0.395217 0.954061 -178.063010 1.053496 92.842972 9.977753 0.000729 -20.669230 -6.529685 -4.392594 24.599966 2.722898 3.636355 -12.188770 0.000000 -0.000000 0.000000 -7.509225 -5.449365 -20.389475 1.020864 -3.695483 23.217436 2.164754 -2.638933 -10.673802 0.000000 -0.000000 0.000000 1.564090 3.844769 19.050522 2.873751 -3.825186 5.393101 0.889701 -0.050181 -2.021024 3.906381 8.964137 21.034258 5.210167 0.991999 17.425223 -15.519504 -23.667753 4.291554 -76.716565 -28.629910 29.148828 -2.813329 -24.309457 18.155650 -7.102464 6.661146 -38.231197 15.179613 22.203461 6.088923 77.830163 28.847407 22.942655 -13.700146 15.512810 -17.245290 7.358835 -1.448167 -56.957358 
0.360908 -0.394630 0.954205 -178.376083 1.142908 92.780637 10.112193 0.080685 -20.516999 -6.565232 -4.205319 24.663523 2.639657 3.659400 -12.245065 0.000000 -0.000000 0.000000 -7.460769 -5.329326 -20.282922 1.106154 -3.640773 23.051437 2.187077 -2.490795 -10.562157 0.000000 -0.000000 0.000000 1.487920 3.745884 19.135120 2.813775 -3.887585 5.431693 0.820944 -0.129893 -2.114584 3.936150 9.296681 21.035675 5.152553 1.188039 17.599763 -15.568318 -23.679205 4.357421 -76.699231 -28.570417 29.187210 -2.564875 -24.350378 18.311318 -7.358522 6.221514 -38.360215 15.175751 22.036269 6.006663 77.984092 28.860903 23.020285 -13.756520 15.341308 -17.081217 7.603946 -1.324243 -57.008237 
